<svg xmlns="http://www.w3.org/2000/svg" width="44.267" height="47.629" viewBox="0 0 44.267 47.629">
  <g id="Group_2" data-name="Group 2" transform="translate(-360.54 -488.523)" opacity="0.501">
    <g id="Group_1" data-name="Group 1" transform="translate(360.54 495.595)">
      <path id="Path_1" data-name="Path 1" d="M401.091,627.239a9.137,9.137,0,0,1-4.224-1.614,7.67,7.67,0,0,1-4.435,1.614,9.141,9.141,0,0,1-4.721-1.614s-1.063,1.614-5.038,1.614-5.038-1.614-5.038-1.614a9.141,9.141,0,0,1-4.721,1.614,7.671,7.671,0,0,1-4.435-1.614,9.135,9.135,0,0,1-4.224,1.614,3.9,3.9,0,0,1-2.07-.717L360.54,642.4h16.595l2.146-8.512h6.785l2.146,8.512h16.595l-1.646-15.881A3.9,3.9,0,0,1,401.091,627.239Z" transform="translate(-360.54 -601.846)" fill="#dfdfdf"/>
      <path id="Path_2" data-name="Path 2" d="M382.673,519.95,360.54,535.758v5.334s1.78,2.176,3.716,2.176,4.224-2.064,4.224-2.064a6.887,6.887,0,0,0,4.435,2.064,8.074,8.074,0,0,0,4.721-2.064s1.063,2.064,5.038,2.064,5.038-2.064,5.038-2.064a8.074,8.074,0,0,0,4.721,2.064,6.886,6.886,0,0,0,4.435-2.064s2.289,2.064,4.224,2.064,3.716-2.176,3.716-2.176v-5.334Z" transform="translate(-360.54 -519.95)" fill="#dfdfdf"/>
    </g>
    <path id="Path_3" data-name="Path 3" d="M458.9,488.523v7.072l14.632-3.536Z" transform="translate(-76.227)" fill="#dfdfdf"/>
  </g>
</svg>
