<svg xmlns="http://www.w3.org/2000/svg" width="23.797" height="25.605" viewBox="0 0 23.797 25.605">
  <g id="Group_2" data-name="Group 2" transform="translate(-360.54 -488.523)">
    <g id="Group_1" data-name="Group 1" transform="translate(360.54 492.324)">
      <path id="Path_1" data-name="Path 1" d="M382.34,626.493a4.912,4.912,0,0,1-2.271-.868,4.123,4.123,0,0,1-2.384.868,4.914,4.914,0,0,1-2.538-.868s-.571.868-2.708.868-2.708-.868-2.708-.868a4.914,4.914,0,0,1-2.538.868,4.124,4.124,0,0,1-2.384-.868,4.911,4.911,0,0,1-2.271.868,2.094,2.094,0,0,1-1.113-.385l-.885,8.537h8.921l1.154-4.576h3.648l1.154,4.576h8.921l-.885-8.537A2.094,2.094,0,0,1,382.34,626.493Z" transform="translate(-360.54 -612.842)" fill="#d30000"/>
      <path id="Path_2" data-name="Path 2" d="M372.438,519.95l-11.9,8.5v2.867a3.225,3.225,0,0,0,2,1.17,4.4,4.4,0,0,0,2.271-1.11,3.7,3.7,0,0,0,2.384,1.11,4.34,4.34,0,0,0,2.538-1.11s.571,1.11,2.708,1.11,2.708-1.11,2.708-1.11a4.34,4.34,0,0,0,2.538,1.11,3.7,3.7,0,0,0,2.384-1.11,4.4,4.4,0,0,0,2.271,1.11,3.226,3.226,0,0,0,2-1.17v-2.867Z" transform="translate(-360.54 -519.95)" fill="#d30000"/>
    </g>
    <path id="Path_3" data-name="Path 3" d="M458.9,488.523v3.8l7.866-1.9Z" transform="translate(-86.462)" fill="#d30000"/>
  </g>
</svg>
