<svg id="Group_5" data-name="Group 5" xmlns="http://www.w3.org/2000/svg" width="239.914" height="202.642" viewBox="0 0 239.914 202.642">
  <path id="Path_41" data-name="Path 41" d="M541.265,206.72q.423,1.65.792,3.317H458.3V206.72Z" transform="translate(-304.581 -137.385)" fill="#e6e6e6"/>
  <path id="Path_42" data-name="Path 42" d="M684.374,150.856a102.49,102.49,0,0,0-4.709-11.156q-.825-1.675-1.714-3.317c-.1-.188-.2-.376-.305-.563v24.686h7.238v-8.181Z" transform="translate(-450.36 -90.265)" fill="#e6e6e6"/>
  <path id="Path_43" data-name="Path 43" d="M679.665,140.817h-2.019V137.5h.305Q678.842,139.14,679.665,140.817Z" transform="translate(-450.36 -91.382)" fill="#ccc"/>
  <path id="Path_44" data-name="Path 44" d="M684.374,180.65h-6.728v3.317h7.238v-1.848Z" transform="translate(-450.36 -120.059)" fill="#ccc"/>
  <rect id="Rectangle_12" data-name="Rectangle 12" width="7.237" height="28.645" transform="translate(216.13 41.596)" fill="#e6e6e6"/>
  <rect id="Rectangle_13" data-name="Rectangle 13" width="7.237" height="3.317" transform="translate(216.13 46.119)" fill="#ccc"/>
  <rect id="Rectangle_14" data-name="Rectangle 14" width="7.237" height="3.317" transform="translate(216.13 60.592)" fill="#ccc"/>
  <path id="Path_45" data-name="Path 45" d="M513.136,123.52h-25.96a1.512,1.512,0,0,0-1.509,1.509v25.96a1.569,1.569,0,0,0,.064.436,1.512,1.512,0,0,0,1.446,1.073h25.96a1.512,1.512,0,0,0,1.446-1.073,1.547,1.547,0,0,0,.064-.436v-25.96A1.512,1.512,0,0,0,513.136,123.52Z" transform="translate(-322.771 -82.091)" fill="#e6e6e6"/>
  <path id="Path_46" data-name="Path 46" d="M514.946,129.02H492.675a1.512,1.512,0,0,0-1.509,1.509V152.8a1.512,1.512,0,0,0,1.509,1.509h22.271a1.512,1.512,0,0,0,1.509-1.509V130.529A1.512,1.512,0,0,0,514.946,129.02Z" transform="translate(-326.426 -85.746)" fill="#fff"/>
  <path id="Path_47" data-name="Path 47" d="M518.758,140.6h-14.5a1.512,1.512,0,0,0-1.509,1.509v14.5a1.512,1.512,0,0,0,1.509,1.509h14.5a1.517,1.517,0,0,0,1.509-1.509v-14.5A1.511,1.511,0,0,0,518.758,140.6Z" transform="translate(-334.122 -93.442)" fill="#ccc"/>
  <path id="Path_48" data-name="Path 48" d="M513.611,167.145l-3.063-5.306a.671.671,0,0,0-1.162,0l-2.237,3.874-2.934-5.08a.671.671,0,0,0-1.162,0l-3.063,5.306-3.644,6.312h7.028l-.7,1.206h14.577Z" transform="translate(-329.869 -106.533)" fill="#fff"/>
  <circle id="Ellipse_41" data-name="Ellipse 41" cx="2.111" cy="2.111" r="2.111" transform="translate(180.55 48.23)" fill="#fff"/>
  <path id="Path_49" data-name="Path 49" d="M683.615,265.249q-.035-1.952-.154-3.884c-.034-.617-.074-1.231-.124-1.845H669.175a1.511,1.511,0,0,0-1.509,1.509v25.96a1.369,1.369,0,0,0,.044.352,1.511,1.511,0,0,0,1.466,1.157h13.054c.067-.382.131-.771.188-1.157.037-.228.074-.46.107-.688.081-.547.158-1.093.228-1.64q.151-1.117.272-2.244.443-4.04.57-8.167v0q.045-1.555.047-3.123v-4.025C683.641,266.714,683.635,265.98,683.615,265.249Z" transform="translate(-443.727 -172.476)" fill="#e6e6e6"/>
  <path id="Path_50" data-name="Path 50" d="M687.27,268.9q-.035-1.952-.154-3.884h-12.44a1.512,1.512,0,0,0-1.509,1.509V288.8a1.512,1.512,0,0,0,1.509,1.509h11.5c.081-.547.158-1.093.228-1.64q.151-1.117.272-2.244.443-4.04.57-8.167v0q.045-1.555.047-3.123v-4.025C687.3,270.37,687.29,269.635,687.27,268.9Z" transform="translate(-447.383 -176.131)" fill="#fff"/>
  <path id="Path_51" data-name="Path 51" d="M694.966,276.6h-8.71a1.512,1.512,0,0,0-1.509,1.509v14.5a1.512,1.512,0,0,0,1.509,1.509h8.12q.443-4.04.57-8.167v0q.045-1.555.047-3.123V278.8C694.993,278.066,694.986,277.331,694.966,276.6Z" transform="translate(-455.078 -183.827)" fill="#ccc"/>
  <path id="Path_52" data-name="Path 52" d="M690.692,299.043q-.126,4.125-.57,8.167-.121,1.127-.272,2.244h-5.172l.7-1.2h-7.03l2.147-3.72,1.5-2.593,3.066-5.306a.668.668,0,0,1,1.16,0l2.935,5.081Z" transform="translate(-450.825 -196.916)" fill="#fff"/>
  <path id="Path_53" data-name="Path 53" d="M519.035,74.3H458.3V70.98h57.727Q517.562,72.605,519.035,74.3Z" transform="translate(-304.581 -47.173)" fill="#e6e6e6"/>
  <path id="Path_54" data-name="Path 54" d="M554.486,12.28q3.713,2.043,7.238,4.377V32.871h-7.238Z" transform="translate(-368.508 -8.161)" fill="#e6e6e6"/>
  <rect id="Rectangle_15" data-name="Rectangle 15" width="7.237" height="3.317" transform="translate(185.977 15.062)" fill="#ccc"/>
  <path id="Path_55" data-name="Path 55" d="M594.984,39.252v7.694h-7.238V33.46q2.531,1.846,4.947,3.84Q593.85,38.256,594.984,39.252Z" transform="translate(-390.613 -22.237)" fill="#e6e6e6"/>
  <path id="Path_56" data-name="Path 56" d="M594.984,46.862v1.362h-7.238V44.91h4.947Q593.85,45.866,594.984,46.862Z" transform="translate(-390.613 -29.847)" fill="#ccc"/>
  <path id="Path_57" data-name="Path 57" d="M509.561.423q2.873,1.293,5.648,2.757L513.72,6.185l-4.947,10L507.3,19.155,505,23.807l-.506,1.023-2.063-1.023-4.421-2.19,2.807-5.675h0l1.469-2.972,4.951-10L508.692.034,508.709,0Z" transform="translate(-330.972)" fill="#e6e6e6"/>
  <path id="Path_58" data-name="Path 58" d="M533.482,3.21l-1.472,2.975-6.483-3.213L526.982.034,527,0l.852.423Z" transform="translate(-349.262)" fill="#ccc"/>
  <rect id="Rectangle_16" data-name="Rectangle 16" width="3.317" height="7.237" transform="translate(169.842 15.943) rotate(-63.66)" fill="#ccc"/>
  <path id="Path_59" data-name="Path 59" d="M543.271,342.47c-.057.386-.121.775-.188,1.157-.117.724-.245,1.442-.382,2.16H458.3V342.47Z" transform="translate(-304.581 -227.604)" fill="#e6e6e6"/>
  <rect id="Rectangle_17" data-name="Rectangle 17" width="7.237" height="28.645" transform="translate(185.977 87.126)" fill="#e6e6e6"/>
  <rect id="Rectangle_18" data-name="Rectangle 18" width="7.237" height="3.317" transform="translate(185.977 91.649)" fill="#ccc"/>
  <rect id="Rectangle_19" data-name="Rectangle 19" width="7.237" height="3.317" transform="translate(185.977 106.123)" fill="#ccc"/>
  <rect id="Rectangle_20" data-name="Rectangle 20" width="7.237" height="28.645" transform="translate(197.134 87.126)" fill="#e6e6e6"/>
  <rect id="Rectangle_21" data-name="Rectangle 21" width="7.237" height="3.317" transform="translate(197.134 91.649)" fill="#ccc"/>
  <rect id="Rectangle_22" data-name="Rectangle 22" width="7.237" height="3.317" transform="translate(197.134 106.123)" fill="#ccc"/>
  <rect id="Rectangle_23" data-name="Rectangle 23" width="28.645" height="7.237" transform="translate(167.033 112.679) rotate(-63.66)" fill="#e6e6e6"/>
  <rect id="Rectangle_24" data-name="Rectangle 24" width="3.317" height="7.237" transform="translate(176.264 94.034) rotate(-63.66)" fill="#ccc"/>
  <rect id="Rectangle_25" data-name="Rectangle 25" width="3.317" height="7.237" transform="translate(169.842 107.004) rotate(-63.66)" fill="#ccc"/>
  <path id="Path_60" data-name="Path 60" d="M273.213,348.66a6.629,6.629,0,0,1,.862.591l29.861-9.293,1.684-7.408,11.513,1.08-1.707,13.4a5.044,5.044,0,0,1-4.215,4.346l-35.141,5.564a6.621,6.621,0,1,1-2.856-8.284Z" transform="translate(-175.007 -221.011)" fill="#e2cfbc"/>
  <path id="Path_61" data-name="Path 61" d="M400.083,303.846l-.2-3.381v0l-.054-.926-.584-9.955a7.873,7.873,0,0,0-7.154-8.5,7.748,7.748,0,0,0-1.791.047,7.9,7.9,0,0,0-6.758,7.1l-1.211,5.038-2.116,8.811a2.823,2.823,0,0,0,1.456,3.18,2.779,2.779,0,0,0,1.05.309l3.528.315,3.4.3,3.921.349.282.023.724.067,2.425.215h.007a2.841,2.841,0,0,0,2.754-1.5,2.767,2.767,0,0,0,.322-1.489Z" transform="translate(-252.637 -186.782)" fill="#d30000"/>
  <path id="Path_62" data-name="Path 62" d="M443.348,163.728c0,11.479-10.615,9.743-23.708,9.743s-23.708,1.736-23.708-9.743S401.117,131.9,419.64,131.9C438.8,131.9,443.348,152.248,443.348,163.728Z" transform="translate(-263.134 -87.66)" fill="#363638"/>
  <circle id="Ellipse_42" data-name="Ellipse 42" cx="15.953" cy="15.953" r="15.953" transform="translate(133.865 69.838) rotate(-45)" fill="#e2cfbc"/>
  <path id="Path_63" data-name="Path 63" d="M439.976,269.992a9.868,9.868,0,0,0-.976-.825,10.37,10.37,0,0,0-7.59-2.009l-29.4,3.72a10.438,10.438,0,0,0-9.106,11.33c.084.939.178,1.929.282,2.958.134,1.291.285,2.646.459,4.048.289,2.358.641,4.847,1.06,7.379.366,2.18.781,4.39,1.258,6.574q.206.946.429,1.885a.012.012,0,0,0,0,.01c.017.077.034.154.054.228a.025.025,0,0,0,0,.017q.312,1.308.654,2.586c.087.315.171.627.258.936.235.839.483,1.66.738,2.469,1.915,6.014,4.447,11.135,7.791,13.859.044.04.087.074.134.111l.134.1.194-.06.825-.245.7-.215,9.177-2.76,2.284-.688,7.339-2.21h0l6.711-2.019.818-.248,5.766-1.734.185-2.153.248-2.858.148-1.717,1.167-13.544.681-7.9.738-8.58A10.423,10.423,0,0,0,439.976,269.992Z" transform="translate(-261.092 -177.494)" fill="#363638"/>
  <path id="Path_64" data-name="Path 64" d="M434.241,426.463c-.077-.225-.151-.449-.228-.671-3.448-10.062-8.533-17.673-16.016-21.818,0,0,0,0-.007,0l-.128-.07-6.52,2.257-.8.278-.838.292-.01,0-6.1,2.113-.01,0-4.79,1.657h0l-4.431,1.533h0l-1.03.359-7.745,2.68-.9.312-.8.278-.124.044-.023.382-.553,9.7-.037.671-.691,12.1-22.945,32.5h15.7a103.346,103.346,0,0,0,15.71-1.2L405.631,454a.975.975,0,0,1,1.657.483l2.163,10.733a103.714,103.714,0,0,0,29.516-16.24A118.764,118.764,0,0,0,434.241,426.463Z" transform="translate(-238.919 -268.43)" fill="#363638"/>
  <path id="Path_65" data-name="Path 65" d="M411.424,170.091h6.31l2.784-7.795.557,7.795h3.016l1.624-4.547.325,4.547h22.409A16.888,16.888,0,0,0,431.56,153.2h-3.248a16.888,16.888,0,0,0-16.888,16.888Z" transform="translate(-273.43 -101.818)" fill="#363638"/>
  <path id="Path_66" data-name="Path 66" d="M221.59,417.395a7.643,7.643,0,0,1-10.417-5.369l-26.989-3.057,9.047-10.834,24.242,4.564a7.685,7.685,0,0,1,4.117,14.7Z" transform="translate(-122.408 -264.598)" fill="#8c5c3b"/>
  <path id="Path_67" data-name="Path 67" d="M175.239,313.809l-11.407-2.039-.828-.148a4.768,4.768,0,0,1-3.726-6.068l5.6-18.612.168-.553a10.824,10.824,0,1,0-20.879-5.692l-7.144,29.157-.265,1.08a14.569,14.569,0,0,0,12.8,17.978c.023,0,.044,0,.067.007l4.276.379,5.548.493,6.976.621,6.51.58a3.412,3.412,0,0,0,3.669-2.811c.01-.047.017-.094.023-.141l1.382-10.317.013-.094A3.411,3.411,0,0,0,175.239,313.809Z" transform="translate(-90.608 -181.066)" fill="#ccc"/>
  <path id="Path_68" data-name="Path 68" d="M127.854,126.652c-4.554,8.953-8.143,18.187-18.187,18.187a18.187,18.187,0,0,1,0-36.374C119.875,108.337,136.33,109.987,127.854,126.652Z" transform="translate(-60.797 -72.081)" fill="#363638"/>
  <path id="Path_69" data-name="Path 69" d="M125.1,503.739l-.413-4.119-.309.017L70.146,502.25l.141,4.169.238,7.141A103.579,103.579,0,0,0,98.159,528.6l.352-2.73a.974.974,0,0,1,1.905-.121l1.07,3.988a102.4,102.4,0,0,0,26.695,4.833Z" transform="translate(-46.619 -332.045)" fill="#363638"/>
  <circle id="Ellipse_43" data-name="Ellipse 43" cx="15.953" cy="15.953" r="15.953" transform="translate(33.812 41.206)" fill="#d30000"/>
  <path id="Path_70" data-name="Path 70" d="M122.729,321.175l-3.163-9.821-.054-.168-.161-.5-.9-2.8c-.292-.909-.57-1.821-.828-2.737q-.357-1.238-.667-2.482-.443-1.731-.8-3.475a86.11,86.11,0,0,1-1.633-11.85q-.111-1.655-.158-3.317a85.737,85.737,0,0,1,1.821-20.228,27.432,27.432,0,0,0-13.53-29.707A26.968,26.968,0,0,0,91.7,230.806c-.265-.02-.53-.037-.8-.054a27.155,27.155,0,0,0-21.781,8.808,27.7,27.7,0,0,0-3.8,5.259A27.316,27.316,0,0,0,62.2,262.157l3.77,25.313-.859,10.656L64.1,310.683l-.054.671-1.08,13.389a2.916,2.916,0,0,0,1.838,2.952,2.848,2.848,0,0,0,1.073.2c.054,0,.1,0,.158,0l53.581-2.881.49-.027a2.919,2.919,0,0,0,2.626-3.814Z" transform="translate(-41.133 -153.321)" fill="#ccc"/>
  <path id="Path_71" data-name="Path 71" d="M137.207,126.609a21.7,21.7,0,0,1-12.4,3.832,13.3,13.3,0,0,0,5.27,2.168,43.753,43.753,0,0,1-17.871.1,11.568,11.568,0,0,1-3.741-1.285,4.737,4.737,0,0,1-2.309-3.088c-.392-2.24,1.353-4.275,3.167-5.647a23.362,23.362,0,0,1,19.632-3.923,10.75,10.75,0,0,1,5.815,3.286c1.424,1.761,1.846,4.476.489,6.29Z" transform="translate(-70.513 -78.466)" fill="#363638"/>
  <path id="Path_72" data-name="Path 72" d="M126.814,408.726a7.644,7.644,0,0,1-10.531-5.143l-27.048-2.472,8.81-11.027,24.335,4.038a7.685,7.685,0,0,1,4.434,14.6Z" transform="translate(-59.304 -259.248)" fill="#d30000"/>
  <path id="Path_73" data-name="Path 73" d="M79.569,305.746l-6.114-.956-6.168-.966a4.767,4.767,0,0,1-3.974-5.445,4.83,4.83,0,0,1,.116-.539l5.353-19.286a10.89,10.89,0,0,0-5.38-12.467,10.822,10.822,0,0,0-15.616,7.225L41.034,303.7a14.579,14.579,0,0,0,13.252,17.7l23.354,1.566a3.416,3.416,0,0,0,3.609-2.888c.01-.047.013-.094.02-.141L82.427,309.6l.01-.094A3.414,3.414,0,0,0,79.569,305.746Z" transform="translate(-27.039 -176.001)" fill="#ccc"/>
  <path id="Path_74" data-name="Path 74" d="M422.365,338.324l-1.4.763L403.722,348.5l-1.4.764a2.923,2.923,0,0,0-1.165,3.961L414,376.756a2.923,2.923,0,0,0,3.962,1.165l0,0L438,366.987l0,0a2.923,2.923,0,0,0,1.165-3.961l-12.841-23.535A2.923,2.923,0,0,0,422.365,338.324Z" transform="translate(-266.37 -224.612)" fill="#e6e6e6"/>
  <path id="Path_75" data-name="Path 75" d="M424.433,340.727l-1.658.9-16.728,9.127-1.658.9a2.081,2.081,0,0,0-.829,2.821L416.4,378.019a2.081,2.081,0,0,0,2.821.829l0,0,20.036-10.932,0,0a2.082,2.082,0,0,0,.829-2.821l-12.841-23.535A2.082,2.082,0,0,0,424.433,340.727Z" transform="translate(-268.035 -226.277)" fill="#fff"/>
  <path id="Path_76" data-name="Path 76" d="M451.082,360.538a.489.489,0,0,0-.661-.194l-.667.366-6.805,3.713a.487.487,0,0,0,.466.855l7.473-4.079A.489.489,0,0,0,451.082,360.538Z" transform="translate(-294.214 -239.443)" fill="#e6e6e6"/>
  <path id="Path_77" data-name="Path 77" d="M455.184,361.97a.481.481,0,0,0-.653-.194l0,0-9.234,5.038a.486.486,0,1,0,.464.853h0l.429-.235,2.687-1.466h0l6.111-3.337a.483.483,0,0,0,.2-.653Z" transform="translate(-295.77 -240.396)" fill="#e6e6e6"/>
  <path id="Path_78" data-name="Path 78" d="M425.038,375.519l-2.931-5.377a.235.235,0,0,0-.319-.091l-1.422.775-.738.4-3.961,2.16-.768.419a.236.236,0,0,0-.091.319l.188.345,2.744,5.031a.233.233,0,0,0,.315.091l4.729-2.579.738-.4,1.422-.775a.234.234,0,0,0,.1-.317Z" transform="translate(-275.66 -245.915)" fill="#e6e6e6"/>
  <path id="Path_79" data-name="Path 79" d="M456.859,380.878a.486.486,0,0,0-.657-.195l-10.136,5.531a.487.487,0,0,0-.245.513.406.406,0,0,0,.05.148.506.506,0,0,0,.1.124l0,0a.491.491,0,0,0,.56.067l10.136-5.531a.486.486,0,0,0,.192-.659Z" transform="translate(-296.285 -252.961)" fill="#e6e6e6"/>
  <path id="Path_80" data-name="Path 80" d="M460.963,382.311a.486.486,0,0,0-.66-.192h0l-11.9,6.49a.475.475,0,0,0-.245.506v0a.405.405,0,0,0,.05.148.469.469,0,0,0,.1.127.48.48,0,0,0,.56.067l11.9-6.49A.489.489,0,0,0,460.963,382.311Z" transform="translate(-297.84 -253.914)" fill="#e6e6e6"/>
  <circle id="Ellipse_44" data-name="Ellipse 44" cx="2.063" cy="2.063" r="2.063" transform="translate(144.323 134.511)" fill="#e6e6e6"/>
  <path id="Path_81" data-name="Path 81" d="M440.365,311.324l-1.4.763L421.722,321.5l-1.4.764a2.923,2.923,0,0,0-1.164,3.961L432,349.756a2.923,2.923,0,0,0,3.962,1.165l0,0L456,339.987l0,0a2.923,2.923,0,0,0,1.165-3.961l-12.841-23.535A2.923,2.923,0,0,0,440.365,311.324Z" transform="translate(-278.333 -206.668)" fill="#ccc"/>
  <path id="Path_82" data-name="Path 82" d="M442.433,313.727l-1.658.9-16.728,9.127-1.658.9a2.081,2.081,0,0,0-.829,2.821L434.4,351.019a2.081,2.081,0,0,0,2.821.829l0,0,20.036-10.932,0,0a2.081,2.081,0,0,0,.829-2.821l-12.841-23.535A2.082,2.082,0,0,0,442.433,313.727Z" transform="translate(-279.998 -208.333)" fill="#fff"/>
  <path id="Path_83" data-name="Path 83" d="M469.082,333.538a.489.489,0,0,0-.661-.195l-3.441,1.878-.959.523-3.072,1.677a.487.487,0,0,0,.466.855l3.622-1.976.758-.416,3.092-1.687A.489.489,0,0,0,469.082,333.538Z" transform="translate(-306.177 -221.499)" fill="#ccc"/>
  <path id="Path_84" data-name="Path 84" d="M473.187,334.97a.481.481,0,0,0-.653-.194l0,0-4.8,2.62-.738.4-3.7,2.016a.486.486,0,1,0,.466.852h0l3.7-2.016.738-.4,4.8-2.62a.483.483,0,0,0,.2-.653Z" transform="translate(-307.736 -222.452)" fill="#ccc"/>
  <path id="Path_85" data-name="Path 85" d="M443.038,348.519l-2.338-4.286-.4-.738-.191-.352a.236.236,0,0,0-.319-.091l-4.746,2.589-2.143,1.167a.236.236,0,0,0-.091.319l.191.349.208.386.195.352v0l2.338,4.286a.233.233,0,0,0,.315.091l6.889-3.757a.234.234,0,0,0,.1-.317Z" transform="translate(-287.623 -227.971)" fill="#d30000"/>
  <path id="Path_86" data-name="Path 86" d="M474.856,353.878a.486.486,0,0,0-.657-.195l-3.029,1.654-.738.4-2.925,1.593-3.445,1.882a.487.487,0,1,0,.466.855L470.9,356.6l.738-.4,3.029-1.654a.485.485,0,0,0,.192-.659Z" transform="translate(-308.245 -235.017)" fill="#ccc"/>
  <path id="Path_87" data-name="Path 87" d="M478.958,355.311a.486.486,0,0,0-.66-.191h0l-4.786,2.613-.738.4L466.4,361.61a.486.486,0,1,0,.461.855l0,0,6.369-3.475.738-.4,4.79-2.613A.489.489,0,0,0,478.958,355.311Z" transform="translate(-309.798 -235.971)" fill="#ccc"/>
  <circle id="Ellipse_45" data-name="Ellipse 45" cx="2.063" cy="2.063" r="2.063" transform="translate(150.36 125.455)" fill="#ccc"/>
  <path id="Path_88" data-name="Path 88" d="M444.261,351.824a6.648,6.648,0,0,1,1.029.184l23.395-20.754-1.513-7.445,10.938-3.751,3.959,12.92a5.044,5.044,0,0,1-2.055,5.695L450.272,358.2a6.619,6.619,0,1,1-6.832-6.4,6.7,6.7,0,0,1,.821.024Z" transform="translate(-290.452 -212.709)" fill="#e2cfbc"/>
  <path id="Path_89" data-name="Path 89" d="M535.942,290.123l-6.628-12.658a7.874,7.874,0,0,0-9.8-4.877c-.074.02-.144.044-.218.07a7.891,7.891,0,0,0-4.85,10.039l2.66,13.99a2.832,2.832,0,0,0,1.368,1.925,2.771,2.771,0,0,0,1.268.376,2.734,2.734,0,0,0,1.083-.151l1.422-.5,9.13-3.18,2.985-1.04a2.841,2.841,0,0,0,1.744-3.62,2.811,2.811,0,0,0-.164-.378Z" transform="translate(-341.606 -180.915)" fill="#d30000"/>
  <path id="Path_90" data-name="Path 90" d="M219.355,469.841H.335a.335.335,0,0,1,0-.671h219.02a.335.335,0,0,1,0,.671Z" transform="translate(0 -311.808)" fill="#4b4b51"/>
  <path id="Path_91" data-name="Path 91" d="M113.5,452.67v.168a5.875,5.875,0,0,0,3.5,5.366,5.782,5.782,0,0,0,2.371.5h54.168V452.67Z" transform="translate(-75.429 -300.842)" fill="#4b4b51"/>
  <path id="Path_92" data-name="Path 92" d="M261.2,321.831a10.934,10.934,0,0,0-3.83-4.367,10.721,10.721,0,0,0-2.4-1.187,10.855,10.855,0,0,0-3.585-.607H199.4a10.913,10.913,0,0,0-10.9,10.9v30.187a10.538,10.538,0,0,0,.074,1.268,11,11,0,0,0,.382,1.858,10.713,10.713,0,0,0,.691,1.737,10.889,10.889,0,0,0,9.754,6.037h51.988a10.9,10.9,0,0,0,10.9-10.892V326.571A10.811,10.811,0,0,0,261.2,321.831Z" transform="translate(-125.273 -209.793)" fill="#4b4b51"/>
  <circle id="Ellipse_46" data-name="Ellipse 46" cx="2.683" cy="2.683" r="2.683" transform="translate(100.285 129.188)" fill="#fff"/>
</svg>
