<svg xmlns="http://www.w3.org/2000/svg" width="213.043" height="176.967" viewBox="0 0 213.043 176.967">
  <g id="Group_4" data-name="Group 4" transform="translate(0.186 0.701)">
    <path id="Path_26" data-name="Path 26" d="M372.095,358.976l-.389,4.564a2.019,2.019,0,0,1-2.181,1.839l-38.038-3.236a2.02,2.02,0,0,1-1.839-2.181l.388-4.564a2.02,2.02,0,0,1,2.181-1.839l38.038,3.236A2.02,2.02,0,0,1,372.095,358.976Z" transform="translate(-227.338 -252.525)" fill="#d30000"/>
    <path id="Path_27" data-name="Path 27" d="M455.469,388.629l-4.213,1.8c-1.023.437-2.076.275-2.347-.361l-9.305-21.81c-.271-.636.341-1.508,1.364-1.944l4.213-1.8c1.023-.436,2.076-.275,2.347.361l9.305,21.81C457.1,387.32,456.492,388.193,455.469,388.629Z" transform="translate(-303.131 -259.916)" fill="#d30000"/>
    <path id="Path_28" data-name="Path 28" d="M130.023,345.5H58.68A29.461,29.461,0,1,0,40.025,369v28.636a2.483,2.483,0,0,0,2.483,2.483h87.515a2.483,2.483,0,0,0,2.483-2.483V347.984A2.483,2.483,0,0,0,130.023,345.5Z" transform="translate(0.012 -223.854)" fill="#e6e6e6"/>
    <path id="Path_29" data-name="Path 29" d="M235.308,452.236H147.793A2.8,2.8,0,0,1,145,449.443V399.789A2.8,2.8,0,0,1,147.793,397h87.515a2.8,2.8,0,0,1,2.793,2.793v49.654A2.8,2.8,0,0,1,235.308,452.236Zm-87.515-54.619a2.175,2.175,0,0,0-2.172,2.172v49.654a2.175,2.175,0,0,0,2.172,2.172h87.515a2.175,2.175,0,0,0,2.172-2.172V399.789a2.175,2.175,0,0,0-2.172-2.172Z" transform="translate(-99.998 -282.487)" fill="#3f3d56" stroke="#4b4b51" stroke-width="1"/>
    <path id="Path_30" data-name="Path 30" d="M342.095,369.976l-.388,4.564a2.019,2.019,0,0,1-2.181,1.839l-38.038-3.236a2.02,2.02,0,0,1-1.839-2.181l.388-4.564a2.02,2.02,0,0,1,2.181-1.839l38.038,3.236A2.02,2.02,0,0,1,342.095,369.976Z" transform="translate(-206.648 -260.111)" fill="#d30000"/>
    <path id="Path_31" data-name="Path 31" d="M425.469,399.629l-4.213,1.8c-1.023.437-2.076.275-2.347-.361l-9.305-21.81c-.271-.636.341-1.508,1.364-1.944l4.213-1.8c1.023-.436,2.076-.275,2.347.361l9.305,21.81C427.1,398.32,426.492,399.193,425.469,399.629Z" transform="translate(-282.441 -267.502)" fill="#d30000"/>
    <rect id="Rectangle_7" data-name="Rectangle 7" width="9.931" height="9.931" transform="matrix(0.794, -0.608, 0.608, 0.794, 160.991, 6.372)" fill="#d30000"/>
    <circle id="Ellipse_39" data-name="Ellipse 39" cx="6.827" cy="6.827" r="6.827" transform="translate(143.54 49.08)" fill="#8e0000"/>
    <path id="Path_32" data-name="Path 32" d="M531.628,170.3a7.138,7.138,0,1,1,10.007,1.328A7.138,7.138,0,0,1,531.628,170.3ZM542.47,162a6.517,6.517,0,1,0-1.213,9.137h0A6.525,6.525,0,0,0,542.47,162Z" transform="translate(-383.012 -109.537)" fill="#3f3d56" stroke="#4b4b51" stroke-width="1"/>
    <path id="Path_33" data-name="Path 33" d="M671.623,14.792l-6.415-8.378L673.586,0,680,8.378ZM666.078,6.53l5.66,7.392,7.392-5.66L673.47.87Z" transform="translate(-502.23)" fill="#3f3d56" stroke="#4b4b51" stroke-width="1"/>
    <rect id="Rectangle_8" data-name="Rectangle 8" width="9.931" height="9.931" transform="matrix(0.794, -0.608, 0.608, 0.794, 195.377, 44.37)" fill="#d30000"/>
    <path id="Path_34" data-name="Path 34" d="M726.4,193.255l-6.415-8.378,8.378-6.415,6.415,8.378Zm-5.544-8.262,5.66,7.392,7.392-5.66-5.66-7.392Z" transform="translate(-522.625 -140.465)" fill="#3f3d56" stroke="#4b4b51" stroke-width="1"/>
    <rect id="Rectangle_9" data-name="Rectangle 9" width="193.65" height="0.621" transform="translate(0.314 169.128)" fill="#3f3d56" stroke="#4b4b51" stroke-width="1"/>
    <path id="Path_35" data-name="Path 35" d="M41.792,344.581a29.792,29.792,0,1,1,29.792-29.792A29.792,29.792,0,0,1,41.792,344.581Zm0-58.964a29.172,29.172,0,1,0,29.172,29.172,29.171,29.171,0,0,0-29.172-29.172Z" transform="translate(-8.272 -205.244)" fill="#3f3d56" stroke="#4b4b51" stroke-width="1"/>
    <circle id="Ellipse_40" data-name="Ellipse 40" cx="16.609" cy="16.609" r="16.609" transform="translate(81.592 32.112)" fill="#d30000"/>
    <path id="Path_36" data-name="Path 36" d="M324.258,181.362l-.017-.621a5.132,5.132,0,0,0,2.938-.663,1.909,1.909,0,0,0,.739-1.406,1.091,1.091,0,0,0-.358-.9,1.88,1.88,0,0,0-1.92-.017l-.514.236.985-7.2.615.084L325.888,177a2.19,2.19,0,0,1,2.073.3,1.7,1.7,0,0,1,.577,1.394,2.523,2.523,0,0,1-.993,1.885A5.712,5.712,0,0,1,324.258,181.362Z" transform="translate(-223.614 -126.485)" fill="#363638"/>
    <rect id="Rectangle_10" data-name="Rectangle 10" width="3.343" height="0.621" transform="translate(106.153 44.923)" fill="#363638"/>
    <rect id="Rectangle_11" data-name="Rectangle 11" width="3.343" height="0.621" transform="translate(95.602 44.923)" fill="#363638"/>
    <path id="Path_37" data-name="Path 37" d="M303,294.667H263.9a1.4,1.4,0,0,1-1.4-1.4V261.858A14.378,14.378,0,0,1,276.862,247.5h12.792a1.4,1.4,0,0,1,1.4,1.373L304.4,293.248v.023A1.4,1.4,0,0,1,303,294.667Z" transform="translate(-181.033 -179.382)" fill="#363638"/>
    <path id="Path_38" data-name="Path 38" d="M304.118,288.451l4.58.036a2.019,2.019,0,0,1,2,2.033l-.3,38.174a2.02,2.02,0,0,1-2.033,2l-4.58-.036a2.019,2.019,0,0,1-2-2.033l.3-38.174A2.019,2.019,0,0,1,304.118,288.451Z" transform="translate(-208.127 -207.627)" fill="#d30000"/>
    <path id="Path_39" data-name="Path 39" d="M294.5,268.323a6.827,6.827,0,1,1,13.655,0V283.53H294.5Z" transform="translate(-203.102 -189.037)" fill="#363638"/>
    <path id="Path_40" data-name="Path 40" d="M201.231,109.917c1.573-1.618,3.858-1.9,6.009-1.72a65.464,65.464,0,0,1,6.744,1.379,11.587,11.587,0,0,0,6.774-.322,6.235,6.235,0,0,0,3.638-4.959,9.011,9.011,0,0,0-1.631-6.355,17.8,17.8,0,0,0-5.685-4.838c-4.643-2.732-9.821-5.122-15.253-5.564-4.9-.4-10.105.956-13.556,4.62-3.234,3.434-4.611,8.226-4.9,12.84-.365,5.89,1.009,11.706,1.507,17.547.387,4.544.242,10-3.448,13.263-3.264,2.887-8.235,2.852-12.084,1.275-4.575-1.874-7.784-6.082-10.213-10.217-.618-1.053-1.2-2.127-1.762-3.209-.277-.532-1.08-.061-.8.47,2.272,4.366,4.915,8.728,8.89,11.754a14.722,14.722,0,0,0,12.407,2.8,10.009,10.009,0,0,0,5.306-3.353,12.975,12.975,0,0,0,2.567-6.4,31.089,31.089,0,0,0-.025-7.436c-.3-2.978-.78-5.935-1.109-8.91-.559-5.067-.636-10.326,1.366-15.113a15.069,15.069,0,0,1,3.92-5.58,14.345,14.345,0,0,1,6.543-3.12c5.263-1.092,10.613.387,15.378,2.615a43.27,43.27,0,0,1,6.876,3.858,11.365,11.365,0,0,1,4.455,5.478,6.78,6.78,0,0,1-.687,6.054c-1.361,1.846-3.718,2.307-5.88,2.2-4.44-.228-8.914-2.809-13.381-1.336a6.44,6.44,0,0,0-2.62,1.622c-.418.43.24,1.089.658.658Z" transform="translate(-107.937 -69.018)" fill="#363638" stroke="#4b4b51" stroke-width="1"/>
  </g>
</svg>
